<?xml version="1.0" encoding="utf-8"?>
<!-- Generator: Adobe Illustrator 25.0.0, SVG Export Plug-In . SVG Version: 6.00 Build 0)  -->
<svg version="1.1" id="Camada_1" xmlns="http://www.w3.org/2000/svg" xmlns:xlink="http://www.w3.org/1999/xlink" x="0px" y="0px"
	 viewBox="0 0 1366 1104" style="enable-background:new 0 0 1366 1104;" xml:space="preserve">
<style type="text/css">
	.st0{fill:#FFFFFF;}
	.st1{fill:#29ABE2;}
	.st2{fill:#AD729D;}
	.st3{fill:#606060;}
	.st4{fill:url(#SVGID_1_);}
	.st5{fill:url(#SVGID_2_);}
	.st6{fill:url(#SVGID_3_);}
	.st7{fill:url(#SVGID_4_);}
	.st8{fill:#461E55;}
	.st9{fill:#B98EAE;}
</style>
<g>
	<path class="st3" d="M401.45,822.93c-2.05-0.19-3.75-0.99-5.1-2.39c-1.36-1.4-2.03-3.18-2.03-5.32v-75.84
		c0-1.09,0.2-2.12,0.61-3.07c0.4-0.95,0.95-1.77,1.64-2.46c0.69-0.69,1.51-1.24,2.46-1.64c0.95-0.4,1.97-0.61,3.07-0.61h49.94
		c1.09,0,2.1,0.2,3.03,0.61c0.93,0.4,1.72,0.95,2.39,1.64c0.67,0.69,1.2,1.51,1.61,2.46c0.4,0.95,0.61,1.97,0.61,3.07
		c0,1.05-0.2,2.05-0.61,3c-0.4,0.95-0.94,1.77-1.61,2.46c-0.67,0.69-1.46,1.24-2.39,1.64c-0.93,0.4-1.94,0.61-3.03,0.61H409.8v21.26
		h33.03c1.09,0,2.1,0.2,3.03,0.61c0.93,0.4,1.74,0.96,2.43,1.68c0.69,0.71,1.24,1.55,1.64,2.5c0.4,0.95,0.61,1.97,0.61,3.07
		c0,1.05-0.2,2.03-0.61,2.96c-0.4,0.93-0.95,1.74-1.64,2.43c-0.69,0.69-1.5,1.23-2.43,1.61c-0.93,0.38-1.94,0.57-3.03,0.57H409.8
		v23.69h42.24c1.09,0,2.1,0.2,3.03,0.61c0.93,0.4,1.72,0.96,2.39,1.68c0.67,0.71,1.2,1.55,1.61,2.5c0.4,0.95,0.61,1.97,0.61,3.07
		c0,2.24-0.73,4.07-2.18,5.49c-1.45,1.43-3.27,2.14-5.46,2.14H401.45z M492.2,798.17l16.77-36.89c0.67-1.47,1.63-2.63,2.89-3.46
		c1.26-0.83,2.63-1.25,4.1-1.25c1.14,0,2.21,0.24,3.21,0.71c1,0.43,1.84,1.02,2.53,1.78c0.69,0.76,1.21,1.61,1.57,2.53
		c0.36,0.93,0.53,1.92,0.53,2.96c0,1.05-0.24,2.07-0.71,3.07l-23.76,50.58c-0.76,1.57-1.8,2.72-3.1,3.46
		c-1.31,0.74-2.53,1.15-3.67,1.25c-1.81,0-3.34-0.44-4.6-1.32c-1.26-0.88-2.22-2.01-2.89-3.39l-23.83-50.66
		c-0.48-1-0.71-2.02-0.71-3.07c0-1.05,0.18-2.03,0.53-2.96c0.36-0.93,0.88-1.77,1.57-2.53c0.69-0.76,1.51-1.36,2.46-1.78
		c0.52-0.24,1.05-0.42,1.57-0.53c0.52-0.12,1.05-0.18,1.57-0.18c1.52,0,2.91,0.42,4.17,1.25c1.26,0.83,2.22,1.99,2.89,3.46
		L492.2,798.17z M540.79,796.67c0.62,1.76,1.49,3.37,2.6,4.82c1.12,1.45,2.41,2.69,3.89,3.71c1.47,1.02,3.09,1.81,4.85,2.35
		c1.76,0.55,3.61,0.82,5.56,0.82c4.9,0,8.75-1.28,11.56-3.85c0.95-0.67,1.88-1.15,2.78-1.46c0.9-0.31,1.76-0.46,2.57-0.46
		c1.33,0,2.52,0.35,3.57,1.03c1.05,0.69,1.9,1.58,2.57,2.68c0.48,0.76,0.82,1.58,1.03,2.46c0.21,0.88,0.26,1.77,0.14,2.68
		c-0.12,0.9-0.4,1.8-0.86,2.68c-0.45,0.88-1.13,1.68-2.03,2.39c-1.05,0.95-2.24,1.87-3.57,2.75c-1.33,0.88-2.87,1.65-4.6,2.32
		c-1.74,0.67-3.69,1.2-5.85,1.6c-2.16,0.4-4.6,0.61-7.31,0.61c-4.71,0-9.13-0.89-13.27-2.68c-4.14-1.78-7.75-4.22-10.84-7.31
		c-3.09-3.09-5.54-6.69-7.35-10.81c-1.81-4.11-2.71-8.53-2.71-13.23s0.9-9.13,2.71-13.27c1.81-4.14,4.26-7.74,7.35-10.81
		c3.09-3.07,6.71-5.49,10.84-7.28c4.14-1.78,8.56-2.68,13.27-2.68c4.66,0,9.05,0.88,13.16,2.64c4.11,1.76,7.73,4.15,10.84,7.17
		c3.11,3.02,5.59,6.58,7.42,10.67c1.83,4.09,2.77,8.47,2.82,13.13c0,2.19-0.7,3.96-2.1,5.32c-1.4,1.36-3.25,2.03-5.53,2.03H540.79z
		 M576.03,783.83c-0.52-1.95-1.34-3.71-2.46-5.28c-1.12-1.57-2.46-2.9-4.03-4c-1.57-1.09-3.33-1.93-5.28-2.5
		c-1.95-0.57-4.02-0.86-6.21-0.86c-2.19,0-4.24,0.3-6.17,0.89c-1.93,0.59-3.66,1.45-5.21,2.57c-1.55,1.12-2.87,2.45-3.96,4
		c-1.09,1.55-1.9,3.27-2.43,5.17H576.03z M612.92,815.29c0,1.05-0.19,2.05-0.57,3c-0.38,0.95-0.92,1.76-1.6,2.43
		c-0.69,0.67-1.49,1.2-2.39,1.6c-0.9,0.4-1.88,0.61-2.93,0.61c-1.09,0-2.13-0.2-3.1-0.61c-0.98-0.4-1.82-0.94-2.53-1.6
		c-0.71-0.67-1.28-1.47-1.71-2.43c-0.43-0.95-0.64-1.95-0.64-3v-23.04c0-4.9,0.94-9.51,2.82-13.84c1.88-4.33,4.43-8.11,7.67-11.34
		c3.23-3.23,7.02-5.79,11.34-7.67c4.33-1.88,8.92-2.82,13.77-2.82h0.14c2.57,0,4.55,0.73,5.96,2.18c1.4,1.45,2.11,3.29,2.11,5.53
		c0,1.09-0.22,2.12-0.64,3.07c-0.43,0.95-1.01,1.77-1.75,2.46c-0.74,0.69-1.59,1.24-2.57,1.64c-0.97,0.4-2.01,0.61-3.1,0.61h-0.14
		c-2.71,0-5.29,0.52-7.74,1.57c-2.45,1.05-4.58,2.47-6.39,4.28c-1.81,1.81-3.26,3.92-4.35,6.35c-1.09,2.42-1.64,5.02-1.64,7.78
		V815.29z M650.66,792.68c0.29,3.47,1.18,6.73,2.68,9.77c1.5,3.04,3.46,5.7,5.89,7.95c2.43,2.26,5.23,4.03,8.42,5.32
		c3.19,1.28,6.59,1.93,10.2,1.93c2,0,3.98-0.21,5.96-0.64c1.97-0.43,3.86-1.06,5.67-1.89c1.81-0.83,3.48-1.83,5.03-3
		c1.54-1.16,2.89-2.48,4.03-3.96c0.76-0.62,1.52-0.93,2.28-0.93c0.14,0,0.27,0.01,0.39,0.04c0.12,0.02,0.25,0.06,0.39,0.11
		c0.48,0.19,0.93,0.57,1.36,1.14c0.47,0.52,0.74,1.2,0.78,2.03c0.05,0.83-0.31,1.61-1.07,2.32c-2.85,3.19-6.35,5.81-10.49,7.88
		c-4.14,2.07-8.92,3.1-14.34,3.1c-4.71,0-9.12-0.89-13.24-2.68c-4.11-1.78-7.72-4.22-10.81-7.31c-3.09-3.09-5.53-6.71-7.31-10.84
		c-1.78-4.14-2.68-8.56-2.68-13.27s0.89-9.12,2.68-13.23c1.78-4.11,4.22-7.72,7.31-10.81c3.09-3.09,6.69-5.53,10.81-7.31
		c4.11-1.78,8.53-2.68,13.24-2.68c4.71,0,9.12,0.89,13.23,2.68c4.11,1.78,7.71,4.21,10.77,7.28c3.07,3.07,5.51,6.66,7.31,10.77
		c1.81,4.11,2.71,8.5,2.71,13.16c0,0.86-0.27,1.58-0.82,2.18c-0.55,0.59-1.27,0.89-2.18,0.89H650.66z M705.52,787.4
		c-0.24-3.57-1.12-6.91-2.64-10.02c-1.52-3.11-3.53-5.82-6.03-8.1s-5.36-4.08-8.6-5.39c-3.23-1.31-6.68-1.96-10.35-1.96
		c-3.71,0-7.18,0.65-10.42,1.96c-3.23,1.31-6.08,3.12-8.53,5.42c-2.45,2.31-4.42,5.01-5.92,8.1c-1.5,3.09-2.37,6.42-2.6,9.99H705.52
		z M737.41,790.47c-2.19-0.71-4.36-1.53-6.53-2.46c-2.17-0.93-4.1-2.08-5.82-3.46c-1.71-1.38-3.09-3.02-4.14-4.92
		c-1.05-1.9-1.57-4.16-1.57-6.78c0-2.9,0.62-5.42,1.85-7.56c1.24-2.14,2.86-3.92,4.89-5.35c2.02-1.43,4.32-2.48,6.89-3.18
		c2.57-0.69,5.18-1.03,7.85-1.03c4.18,0,8.03,0.77,11.52,2.32c3.5,1.55,6.17,4.01,8.03,7.38c0.33,0.67,0.45,1.31,0.36,1.93
		c-0.1,0.62-0.33,1.12-0.71,1.5c-0.57,0.57-1.21,0.86-1.93,0.86c-0.38,0-0.81-0.12-1.28-0.36c-2.09-2.81-4.38-4.78-6.85-5.92
		c-2.47-1.14-5.4-1.71-8.78-1.71c-1.81,0-3.64,0.19-5.49,0.57c-1.85,0.38-3.53,1-5.03,1.85c-1.5,0.86-2.72,2-3.67,3.42
		c-0.95,1.43-1.43,3.19-1.43,5.28c0,1.86,0.4,3.44,1.21,4.74c0.81,1.31,1.9,2.44,3.28,3.39c1.38,0.95,2.97,1.76,4.78,2.43
		c1.81,0.67,3.69,1.28,5.64,1.85c3.14,0.95,6.14,1.96,8.99,3.03c2.85,1.07,5.36,2.35,7.53,3.85c2.16,1.5,3.88,3.27,5.14,5.32
		c1.26,2.05,1.89,4.52,1.89,7.42c0,2.71-0.6,5.22-1.78,7.53c-1.19,2.31-2.82,4.31-4.89,5.99c-2.07,1.69-4.48,3.02-7.24,4
		c-2.76,0.97-5.71,1.46-8.85,1.46c-2.47,0-4.89-0.24-7.24-0.71c-2.35-0.47-4.54-1.2-6.56-2.18c-2.02-0.97-3.82-2.2-5.39-3.67
		c-1.57-1.47-2.85-3.21-3.85-5.21c-0.62-1.24-0.67-2.28-0.14-3.14c0.52-0.86,1.31-1.28,2.35-1.28c1.09,0,2.09,0.45,3,1.36
		c1.62,2.85,3.96,5.04,7.03,6.56c3.07,1.52,6.69,2.28,10.88,2.28c2.14,0,4.2-0.32,6.17-0.96c1.97-0.64,3.73-1.53,5.28-2.68
		c1.54-1.14,2.77-2.51,3.67-4.1c0.9-1.59,1.36-3.34,1.36-5.24c0-1.95-0.56-3.65-1.68-5.1c-1.12-1.45-2.62-2.75-4.49-3.89
		c-1.88-1.14-4.04-2.14-6.49-3S740.12,791.23,737.41,790.47z M780.29,756.65h33.89c0.86,0,1.61,0.3,2.25,0.89
		c0.64,0.6,0.96,1.32,0.96,2.18s-0.3,1.58-0.89,2.18c-0.6,0.6-1.37,0.89-2.32,0.89h-33.89v27.9c0,3.81,0.72,7.35,2.18,10.63
		c1.45,3.28,3.45,6.14,5.99,8.56c2.54,2.43,5.52,4.33,8.92,5.71c3.4,1.38,7.05,2.07,10.95,2.07c3.52,0,6.77-0.52,9.74-1.57
		c2.97-1.05,5.81-2.76,8.53-5.14c0.29-0.29,0.67-0.55,1.14-0.78c0.24-0.09,0.45-0.17,0.64-0.21c0.19-0.05,0.4-0.07,0.64-0.07
		c0.71,0,1.33,0.24,1.85,0.71c0.71,0.67,1.01,1.47,0.89,2.43c-0.12,0.95-0.51,1.76-1.18,2.43c-2.9,2.76-6.25,4.85-10.06,6.28
		c-3.81,1.43-7.87,2.14-12.2,2.14c-4.71,0-9.14-0.84-13.31-2.53c-4.16-1.69-7.8-4.01-10.92-6.96c-3.12-2.95-5.56-6.46-7.35-10.52
		c-1.78-4.07-2.68-8.45-2.68-13.16v-54.51c0-0.9,0.31-1.66,0.93-2.28c0.62-0.62,1.36-0.93,2.21-0.93c0.9,0,1.64,0.3,2.21,0.89
		c0.57,0.6,0.86,1.37,0.86,2.32V756.65z M884.53,754.39c2.9,0,4.6,1.7,4.6,4.6v37.48h5.6c3.1,0,5.2,2.1,5.2,5v0.7
		c0,2.7-2.1,4.8-5.2,4.8h-5.6v12.39c0,2.1-1.4,3.5-3.5,3.5h-5.1c-2.1,0-3.5-1.4-3.5-3.5v-12.39h-26.39c-3.5,0-5.5-1.6-5.5-5.2v-3
		c0-1.9,0.4-3.3,1.6-5.1l22.89-34.98c1.9-2.8,3.6-4.3,6.2-4.3H884.53z M877.04,764.49l-20.49,32.28h20.49V764.49z M901.42,812.96
		c0-3.4,1.8-5.2,5.3-5.2h4.7c3.5,0,5.3,1.8,5.3,5.2v5.2c0,3.4-1.8,5.2-5.3,5.2h-4.7c-3.5,0-5.3-1.8-5.3-5.2V812.96z M920.71,800.07
		v-22.49c0-15.09,9.3-23.79,25.49-23.79c16.09,0,25.49,8.7,25.49,23.79v22.49c0,15.09-9.39,23.89-25.49,23.89
		C930.01,823.95,920.71,815.26,920.71,800.07z M959.39,800.67v-23.69c0-8.9-4.5-13.39-13.19-13.39c-8.8,0-13.19,4.5-13.19,13.39
		v23.69c0,8.99,4.4,13.49,13.19,13.49C954.89,814.16,959.39,809.56,959.39,800.67z"/>
	<linearGradient id="SVGID_1_" gradientUnits="userSpaceOnUse" x1="668.2946" y1="881.9681" x2="688.0108" y2="345.6865">
		<stop  offset="0.2903" style="stop-color:#0071BC"/>
		<stop  offset="0.8514" style="stop-color:#3FA9F5"/>
	</linearGradient>
	<path class="st4" d="M686.22,280.07c-111.92-1.82-203.25,88.06-203.91,200.67c-0.65,109.76,88.6,199.83,199.11,200.94
		c110.04,1.11,201.24-87.99,202.28-197.61C884.74,372.43,797.08,281.87,686.22,280.07z M559.11,351.53
		c58.71-56.61,153.26-65.9,222.41-20.03c64.81,42.99,96.21,126.66,73.87,196.07c-21.79-38.24-42.82-75.16-65.01-114.1
		c-12.58,20.29-23.16,37.35-35.08,56.57c-24.95-42.72-48.28-82.64-73.24-125.38c-25.35,43.68-48.4,83.41-73.15,126.06
		c-11.83-19.83-22.14-37.12-34.49-57.81c-21.82,38.28-42.21,74.04-62.98,110.47C493.51,478.74,507.9,400.91,559.11,351.53z"/>
</g>
</svg>
